<svg width="32" height="32" viewBox="0 0 32 32" fill="none" xmlns="http://www.w3.org/2000/svg">
<path d="M16 3H15V4H16V3Z" fill="currentColor"/>
<path d="M17 3H15V28H17V3Z" fill="currentColor"/>
<path d="M15 4H14V27H15V4Z" fill="currentColor"/>
<path d="M18 4H17V27H18V4Z" fill="currentColor"/>
<path d="M14 5H13V26H14V5Z" fill="currentColor"/>
<path d="M19 5H18V26H19V5Z" fill="currentColor"/>
<path d="M13 6H12V25H13V6Z" fill="currentColor"/>
<path d="M20 6H19V25H20V6Z" fill="currentColor"/>
<path d="M12 7H11V24H12V7Z" fill="currentColor"/>
<path d="M21 7H20V24H21V7Z" fill="currentColor"/>
<path d="M11 8H10V23H11V8Z" fill="currentColor"/>
<path d="M22 8H21V23H22V8Z" fill="currentColor"/>
<path d="M10 9H9V22H10V9Z" fill="currentColor"/>
<path d="M23 9H22V22H23V9Z" fill="currentColor"/>
<path d="M9 10H8V21H9V10Z" fill="currentColor"/>
<path d="M24 10H23V21H24V10Z" fill="currentColor"/>
<path d="M8 11H7V20H8V11Z" fill="currentColor"/>
<path d="M25 11H24V20H25V11Z" fill="currentColor"/>
<path d="M7 12H6V19H7V12Z" fill="currentColor"/>
<path d="M26 12H25V19H26V12Z" fill="currentColor"/>
<path d="M6 13H5V18H6V13Z" fill="currentColor"/>
<path d="M27 13H26V18H27V13Z" fill="currentColor"/>
<path d="M5 14H4V17H5V14Z" fill="currentColor"/>
<path d="M28 14H27V17H28V14Z" fill="currentColor"/>
<path d="M4 15H3V16H4V15Z" fill="currentColor"/>
<path d="M29 15H28V16H29V15Z" fill="currentColor"/>
<path d="M4 16H3V17H4V16Z" fill="currentColor"/>
<path d="M29 16H28V17H29V16Z" fill="currentColor"/>
<path d="M5 17H4V18H5V17Z" fill="currentColor"/>
<path d="M28 17H27V18H28V17Z" fill="currentColor"/>
<path d="M6 18H5V19H6V18Z" fill="currentColor"/>
<path d="M27 18H26V19H27V18Z" fill="currentColor"/>
<path d="M7 19H6V20H7V19Z" fill="currentColor"/>
<path d="M26 19H25V20H26V19Z" fill="currentColor"/>
<path d="M8 20H7V21H8V20Z" fill="currentColor"/>
<path d="M25 20H24V21H25V20Z" fill="currentColor"/>
<path d="M9 21H8V22H9V21Z" fill="currentColor"/>
<path d="M24 21H23V22H24V21Z" fill="currentColor"/>
<path d="M10 22H9V23H10V22Z" fill="currentColor"/>
<path d="M23 22H22V23H23V22Z" fill="currentColor"/>
<path d="M11 23H10V24H11V23Z" fill="currentColor"/>
<path d="M22 23H21V24H22V23Z" fill="currentColor"/>
<path d="M12 24H11V25H12V24Z" fill="currentColor"/>
<path d="M21 24H20V25H21V24Z" fill="currentColor"/>
<path d="M13 25H12V26H13V25Z" fill="currentColor"/>
<path d="M20 25H19V26H20V25Z" fill="currentColor"/>
<path d="M14 26H13V27H14V26Z" fill="currentColor"/>
<path d="M19 26H18V27H19V26Z" fill="currentColor"/>
<path d="M15 27H14V28H15V27Z" fill="currentColor"/>
<path d="M18 27H17V28H18V27Z" fill="currentColor"/>
<path d="M16 28H15V29H16V28Z" fill="currentColor"/>
<path d="M17 28H16V29H17V28Z" fill="currentColor"/>
</svg>
