<svg width="32" height="32" viewBox="0 0 32 32" xmlns="http://www.w3.org/2000/svg">
  <rect x="15" y="3" width="1" height="1" fill="currentColor"/>
  <rect x="16" y="3" width="1" height="1" fill="currentColor"/>
  <rect x="14" y="4" width="1" height="1" fill="currentColor"/>
  <rect x="17" y="4" width="1" height="1" fill="currentColor"/>
  <rect x="13" y="5" width="1" height="1" fill="currentColor"/>
  <rect x="18" y="5" width="1" height="1" fill="currentColor"/>
  <rect x="12" y="6" width="1" height="1" fill="currentColor"/>
  <rect x="19" y="6" width="1" height="1" fill="currentColor"/>
  <rect x="11" y="7" width="1" height="1" fill="currentColor"/>
  <rect x="20" y="7" width="1" height="1" fill="currentColor"/>
  <rect x="10" y="8" width="1" height="1" fill="currentColor"/>
  <rect x="21" y="8" width="1" height="1" fill="currentColor"/>
  <rect x="9" y="9" width="1" height="1" fill="currentColor"/>
  <rect x="22" y="9" width="1" height="1" fill="currentColor"/>
  <rect x="8" y="10" width="1" height="1" fill="currentColor"/>
  <rect x="23" y="10" width="1" height="1" fill="currentColor"/>
  <rect x="7" y="11" width="1" height="1" fill="currentColor"/>
  <rect x="24" y="11" width="1" height="1" fill="currentColor"/>
  <rect x="6" y="12" width="1" height="1" fill="currentColor"/>
  <rect x="25" y="12" width="1" height="1" fill="currentColor"/>
  <rect x="5" y="13" width="1" height="1" fill="currentColor"/>
  <rect x="26" y="13" width="1" height="1" fill="currentColor"/>
  <rect x="4" y="14" width="1" height="1" fill="currentColor"/>
  <rect x="27" y="14" width="1" height="1" fill="currentColor"/>
  <rect x="3" y="15" width="1" height="1" fill="currentColor"/>
  <rect x="28" y="15" width="1" height="1" fill="currentColor"/>
  <rect x="3" y="16" width="1" height="1" fill="currentColor"/>
  <rect x="28" y="16" width="1" height="1" fill="currentColor"/>
  <rect x="4" y="17" width="1" height="1" fill="currentColor"/>
  <rect x="27" y="17" width="1" height="1" fill="currentColor"/>
  <rect x="5" y="18" width="1" height="1" fill="currentColor"/>
  <rect x="26" y="18" width="1" height="1" fill="currentColor"/>
  <rect x="6" y="19" width="1" height="1" fill="currentColor"/>
  <rect x="25" y="19" width="1" height="1" fill="currentColor"/>
  <rect x="7" y="20" width="1" height="1" fill="currentColor"/>
  <rect x="24" y="20" width="1" height="1" fill="currentColor"/>
  <rect x="8" y="21" width="1" height="1" fill="currentColor"/>
  <rect x="23" y="21" width="1" height="1" fill="currentColor"/>
  <rect x="9" y="22" width="1" height="1" fill="currentColor"/>
  <rect x="22" y="22" width="1" height="1" fill="currentColor"/>
  <rect x="10" y="23" width="1" height="1" fill="currentColor"/>
  <rect x="21" y="23" width="1" height="1" fill="currentColor"/>
  <rect x="11" y="24" width="1" height="1" fill="currentColor"/>
  <rect x="20" y="24" width="1" height="1" fill="currentColor"/>
  <rect x="12" y="25" width="1" height="1" fill="currentColor"/>
  <rect x="19" y="25" width="1" height="1" fill="currentColor"/>
  <rect x="13" y="26" width="1" height="1" fill="currentColor"/>
  <rect x="18" y="26" width="1" height="1" fill="currentColor"/>
  <rect x="14" y="27" width="1" height="1" fill="currentColor"/>
  <rect x="17" y="27" width="1" height="1" fill="currentColor"/>
  <rect x="15" y="28" width="1" height="1" fill="currentColor"/>
  <rect x="16" y="28" width="1" height="1" fill="currentColor"/>
</svg>